<?xml version="1.0" standalone="no"?><!DOCTYPE svg PUBLIC "-//W3C//DTD SVG 1.1//EN" "http://www.w3.org/Graphics/SVG/1.1/DTD/svg11.dtd"><svg t="1481954559076" class="icon" style="" viewBox="0 0 1024 1024" version="1.1" xmlns="http://www.w3.org/2000/svg" p-id="1531" xmlns:xlink="http://www.w3.org/1999/xlink" width="16" height="16"><defs><style type="text/css"></style></defs><path d="M424.780543 546.885532 180.565449 546.885532c-28.903284 0-52.331879 23.428595-52.331879 52.331879L128.23357 843.432505c0 28.903284 23.428595 52.331879 52.331879 52.331879l244.215094 0c28.901237 0 52.331879-23.428595 52.331879-52.331879L477.112422 599.217411C477.112422 570.31515 453.680756 546.885532 424.780543 546.885532zM424.780543 808.54288c0 19.269879-15.618723 34.889625-34.887578 34.889625L215.453027 843.432505c-19.268856 0-34.887578-15.618723-34.887578-34.889625L180.565449 634.107035c0-19.264762 15.618723-34.889625 34.887578-34.889625l174.438914 0c19.268856 0 34.887578 15.624862 34.887578 34.889625L424.779519 808.54288zM843.434551 128.235616 599.219457 128.235616c-28.903284 0-52.331879 23.428595-52.331879 52.333926l0 244.213048c0 28.903284 23.428595 52.331879 52.331879 52.331879l244.215094 0c28.901237 0 52.331879-23.428595 52.331879-52.331879L895.76643 180.568519C895.76643 151.664212 872.335788 128.235616 843.434551 128.235616zM843.434551 389.891941c0 19.269879-15.619746 34.889625-34.887578 34.889625L634.107035 424.781566c-19.268856 0-34.887578-15.619746-34.887578-34.889625L599.219457 215.456097c0-19.269879 15.618723-34.887578 34.887578-34.887578l174.438914 0c19.268856 0 34.887578 15.617699 34.887578 34.887578L843.433528 389.891941zM843.434551 546.885532 599.219457 546.885532c-28.903284 0-52.331879 23.428595-52.331879 52.331879L546.887578 843.432505c0 28.903284 23.428595 52.331879 52.331879 52.331879l244.215094 0c28.901237 0 52.331879-23.428595 52.331879-52.331879L895.76643 599.217411C895.76643 570.31515 872.335788 546.885532 843.434551 546.885532zM843.434551 808.54288c0 19.269879-15.619746 34.889625-34.887578 34.889625L634.107035 843.432505c-19.268856 0-34.887578-15.618723-34.887578-34.889625L599.219457 634.107035c0-19.264762 15.618723-34.889625 34.887578-34.889625l174.438914 0c19.268856 0 34.887578 15.624862 34.887578 34.889625L843.433528 808.54288zM424.780543 128.235616 180.565449 128.235616c-28.903284 0-52.331879 23.428595-52.331879 52.333926l0 244.213048c0 28.903284 23.428595 52.331879 52.331879 52.331879l244.215094 0c28.901237 0 52.331879-23.428595 52.331879-52.331879L477.112422 180.568519C477.112422 151.664212 453.680756 128.235616 424.780543 128.235616zM424.780543 389.891941c0 19.269879-15.618723 34.889625-34.887578 34.889625L215.453027 424.781566c-19.268856 0-34.887578-15.619746-34.887578-34.889625L180.565449 215.456097c0-19.269879 15.618723-34.887578 34.887578-34.887578l174.438914 0c19.268856 0 34.887578 15.617699 34.887578 34.887578L424.779519 389.891941z" p-id="1532"></path></svg>