<?xml version="1.0" standalone="no"?>
<!DOCTYPE svg PUBLIC "-//W3C//DTD SVG 1.1//EN" "http://www.w3.org/Graphics/SVG/1.1/DTD/svg11.dtd">
<svg t="1481953296744" class="icon" style="" viewBox="0 0 1024 1024" version="1.1" xmlns="http://www.w3.org/2000/svg" p-id="1153" xmlns:xlink="http://www.w3.org/1999/xlink" width="200" height="200">
  <defs>
    <style type="text/css"></style>
  </defs>
  <path d="M199.899 920.059c-29.653 0-65.58-20.255-81.734-46.05l-0.244-0.244c-4.34-7.232-26.282-38.094-26.282-81.973 0-20.01 2.649-39.538 7.954-58.344 18.563-67.505 70.16-128.746 144.899-172.627l2.173-1.205 1.447 1.93c6.99 8.919 14.47 17.119 23.147 25.556l2.649 2.649-3.13 1.93c-69.678 38.577-117.177 92.823-133.807 152.857-4.098 14.947-6.269 30.861-6.269 47.253 0 31.584 16.636 54.245 20.01 60.033 0 0 0 0.244 0.244 0.244 9.163 14.47 32.551 27.726 48.945 27.726l614.8-0.726c17.359 0 41.71-12.777 52.322-27.241l0.244-0.244c1.447-1.93 23.627-27.241 23.627-59.553 0-12.296-1.205-24.591-3.857-37.13-17.844-83.903-96.439-156.954-209.995-195.047l-1.205-0.48-0.965 0.726c-45.808 40.26-103.912 62.685-163.706 62.685-139.597 0-253.152-118.137-253.152-263.52s113.797-263.52 253.635-263.52 253.635 118.137 253.635 263.52c0 59.793-20.01 118.38-56.176 164.91l-1.93 2.173 2.894 0.965c55.692 21.217 104.395 51.353 141.283 87.759 38.577 38.094 64.371 83.178 74.503 130.433 3.13 14.947 4.824 30.378 4.824 45.808 0 43.641-26.039 76.43-31.343 83.903-17.359 24.352-54.006 43.398-83.42 43.398l-616.006 1.447zM510.918 136.493c-118.38 0-214.575 100.054-214.575 223.013s96.195 223.256 214.575 223.256 214.575-100.054 214.575-223.013c0-123.203-96.439-223.256-214.575-223.256z" p-id="1154"></path>
</svg>
