<svg style="position: absolute; width: 0; height: 0; overflow: hidden;" version="1.1" xmlns="http://www.w3.org/2000/svg" xmlns:xlink="http://www.w3.org/1999/xlink">
  <defs>
    <symbol id="icon-user" viewbox="0 0 16 16">
      <g transform="scale(0.015625, 0.015625)">
        <path d="M926.26863 957.936375l-55.567573 0C859.981924 816.071344 768.64366 697.151907 642.9264 647.223774c-39.952944 19.377326-84.538395 30.569226-131.806955 30.569226-47.273676 0-91.879594-11.192923-131.830491-30.569226-125.716236 49.928133-217.054501 168.847569-227.756237 310.713624l-55.584969 0c9.907651-151.502529 99.44899-280.826943 226.671533-346.280678C251.660158 555.227524 205.943954 467.874013 205.943954 369.606942c0-170.193217 136.641053-308.165592 305.176514-308.165592 168.520111 0 305.160141 137.973398 305.160141 308.165592 0 98.267071-45.716204 185.620581-116.67328 242.049778C826.829873 677.110455 916.358933 806.434869 926.26863 957.936375zM760.786715 369.606942c0-139.254577-111.795179-252.137531-249.666246-252.137531-137.89665 0-249.693876 112.882953-249.693876 252.137531 0 139.248438 111.797225 252.144694 249.693876 252.144694C648.991536 621.751636 760.786715 508.85538 760.786715 369.606942z" ></path>
      </g>
    </symbol>
    <symbol id="icon-lock" viewbox="0 0 16 16">
      <g transform="scale(0.015625, 0.015625)"><path d="M509.44578 547.61371l17.382215 0c14.405233 0 26.094308 11.729048 26.094308 26.178251l0 122.178763c0 14.449203-11.689075 26.177252-26.112296 26.177252l-17.385213 0c-14.418624 0-26.09171-11.728048-26.09171-26.177252l0-122.178763C483.338481 559.342558 495.014164 547.61371 509.44578 547.61371L509.44578 547.61371zM796.425408 460.338483l0 314.79317c0 18.910179-15.580436 34.286754-34.785415 34.286754L274.629585 809.418406c-19.187391 0-34.787414-15.376575-34.787414-34.286754L239.842171 460.338483 796.425408 460.338483M848.609027 407.98158 187.666746 407.98158l0 367.150072c0 47.871543 38.924609 86.65205 86.962839 86.65205l487.010607 0c48.039229 0 86.968835-38.780707 86.968835-86.65205L848.609027 407.98158 848.609027 407.98158 848.609027 407.98158zM779.039195 407.98158l-52.185418 0 0-52.364897c0-117.741371-97.977371-209.444996-208.717889-209.444996-113.468868 0-208.720887 95.559011-208.720887 209.444996l0 52.364897-52.175025 0 0-52.364897c0-142.752414 118.636165-261.808294 260.895913-261.808294 140.461367 0 260.903507 114.204369 260.903507 261.808294L779.039395 407.98158 779.039195 407.98158z"></path></g>
    </symbol>
    <symbol id="icon-shield" viewbox="0 0 16 16">
      <g transform="scale(0.015625, 0.015625)"><path d="M899.0318 254.835989c-1.879813-0.821715-3.957125-1.476631-6.248308-1.926886-141.138484-27.78788-256.594029-95.311763-370.208647-181.836395-7.104815-5.412266-21.344121-5.617951-28.438703-0.156566-51.966559 39.981596-105.515149 78.9317-162.547073 111.212918-62.47489 35.365462-138.850371 51.951209-207.747531 70.183456-18.361183 4.858658-23.041786 22.174022-18.306948 36.265972 5.760191 130.954541 27.164686 268.446985 81.788771 387.709229 57.676607 125.932154 193.631022 220.186841 314.801732 277.630135 4.200672 1.991354 8.332782 2.90926 12.276604 2.976798 5.075599 0.604774 10.561543-0.218988 16.165168-2.976798 121.397884-59.734476 246.036579-153.744593 307.506583-277.630135 58.546418-117.989251 76.861552-263.703961 82.08553-394.510122C920.79036 266.022773 910.782426 257.05861 899.0318 254.835989zM789.42138 647.549186C738.483244 758.766197 623.422695 842.786799 516.089132 897.737318c-107.355053-53.072753-216.850863-131.974777-274.347368-238.565421-56.264445-104.309694-73.476455-239.132332-79.307254-358.261547 60.946071-16.284895 121.882931-33.675984 179.62503-59.245336 59.611679-26.397207 114.640993-68.258617 166.701696-108.521622 108.830661 78.879512 220.791615 142.970202 353.947288 172.153872C856.456123 420.863327 837.355089 542.896684 789.42138 647.549186zM695.105295 368.063797c-73.668837 74.447573-147.337673 148.895145-221.00651 223.344764-39.052434-39.46585-78.104869-78.9317-117.154233-118.39755-25.714661-25.987884-65.558112 14.279215-39.84345 40.267099 44.951795 45.424562 89.899496 90.855264 134.851291 136.279826 0.662079 0.669242 1.336438 1.284249 2.015913 1.867534 9.930163 10.293437 26.511817 14.066367 39.494503 0.945535 80.495312-81.34875 160.986531-162.697499 241.481843-244.043179C760.660336 382.339942 720.819956 342.074889 695.105295 368.063797z"></path></g>
    </symbol>
  </defs>
</svg>
